# xmcd
#
# Track frame offsets:
# 150
# 17484
# 33669
# 53297
# 71739
# 84024
# 107456
# 119588
# 135952
# 151346
#
# Disc length: 2252 seconds
#
#
# Revision: 0
# Processed by: cddbd v1.5.1PL2 Copyright (c) Steve Scherf et al.
# Submitted via: FreeRIP 2.944 
#
DISCID=6d08ca0a
DTITLE=Neal McCoy - No Doubt About It 
DYEAR=1994
DGENRE=Country
TTITLE0=No Doubt About It
TTITLE1=The City Put The Country Back In Me
TTITLE2=Why Now
TTITLE3=Heaven
TTITLE4=Wink
TTITLE5=I Apologize
TTITLE6=Mudslide
TTITLE7=Why Not Tonight
TTITLE8=Small Up and Simple Down
TTITLE9=Something Moving Me
EXTD=
EXTT0=
EXTT1=
EXTT2=
EXTT3=
EXTT4=
EXTT5=
EXTT6=
EXTT7=
EXTT8=
EXTT9=
PLAYORDER=
